<svg width="24" height="25" viewBox="0 0 24 25" fill="none" xmlns="http://www.w3.org/2000/svg">
<g id="Delete">
<path id="Shape" d="M10 5.27081H14C14 4.16624 13.1046 3.27081 12 3.27081C10.8954 3.27081 10 4.16624 10 5.27081ZM8.5 5.27081C8.5 3.33782 10.067 1.77081 12 1.77081C13.933 1.77081 15.5 3.33782 15.5 5.27081H21.25C21.6642 5.27081 22 5.6066 22 6.02081C22 6.43503 21.6642 6.77081 21.25 6.77081H19.9309L18.7589 18.882C18.5729 20.8042 16.9575 22.2708 15.0263 22.2708H8.97369C7.04254 22.2708 5.42715 20.8042 5.24113 18.882L4.06908 6.77081H2.75C2.33579 6.77081 2 6.43503 2 6.02081C2 5.6066 2.33579 5.27081 2.75 5.27081H8.5ZM10.5 10.0208C10.5 9.6066 10.1642 9.27081 9.75 9.27081C9.33579 9.27081 9 9.6066 9 10.0208V17.5208C9 17.935 9.33579 18.2708 9.75 18.2708C10.1642 18.2708 10.5 17.935 10.5 17.5208V10.0208ZM14.25 9.27081C13.8358 9.27081 13.5 9.6066 13.5 10.0208V17.5208C13.5 17.935 13.8358 18.2708 14.25 18.2708C14.6642 18.2708 15 17.935 15 17.5208V10.0208C15 9.6066 14.6642 9.27081 14.25 9.27081Z" fill="#191C1E"/>
</g>
</svg>
